<svg xmlns="http://www.w3.org/2000/svg" width="119.141" height="42" viewBox="0 0 119.141 42">
  <g id="Group_8771" data-name="Group 8771" transform="translate(12686 3487)">
    <rect id="Rectangle_126" data-name="Rectangle 126" width="119" height="42" transform="translate(-12686 -3487)" opacity="0"/>
    <g id="Group_1971" data-name="Group 1971" transform="translate(-12686 -3478.095)">
      <path id="Path_2902" data-name="Path 2902" d="M36.991-24.42l-7.213,21.9A3.248,3.248,0,0,1,28.7-1.011a2.7,2.7,0,0,1-1.684.561,2.763,2.763,0,0,1-1.728-.561A2.987,2.987,0,0,1,24.25-2.523L19.067-18.2,13.884-2.523A3.248,3.248,0,0,1,12.8-1.011,2.7,2.7,0,0,1,11.12-.45a2.763,2.763,0,0,1-1.728-.561A2.987,2.987,0,0,1,8.356-2.523L1.1-24.42H5.2L11.12-6.5,16.994-24.42h4.1L27.014-6.5,32.931-24.42Z" transform="translate(-1.1 24.42)"/>
      <path id="Path_2903" data-name="Path 2903" d="M13.064-.45a12.112,12.112,0,0,1-4.6-.885A11.275,11.275,0,0,1,4.6-3.948,11.856,11.856,0,0,1,2.007-7.814a11.86,11.86,0,0,1-.907-4.6,11.86,11.86,0,0,1,.907-4.6A11.856,11.856,0,0,1,4.6-20.878a11.543,11.543,0,0,1,3.865-2.635,11.86,11.86,0,0,1,4.6-.907,11.287,11.287,0,0,1,4.751.95,8.837,8.837,0,0,1,3.455,2.807,7.549,7.549,0,0,1,1.533,3.39,5.325,5.325,0,0,1-.5,3.3A5.882,5.882,0,0,1,19.78-11.4a8.044,8.044,0,0,1-3.909.929H5.2a8.216,8.216,0,0,0,1.08,2.462A8.146,8.146,0,0,0,8.054-6.064,8.035,8.035,0,0,0,10.364-4.79a7.99,7.99,0,0,0,2.7.453A7.935,7.935,0,0,0,18.505-6.41L21.14-3.559a12.1,12.1,0,0,1-3.758,2.311A11.907,11.907,0,0,1,13.064-.45Zm2.807-13.907a4.352,4.352,0,0,0,1.836-.367,2.181,2.181,0,0,0,1.1-.972,1.747,1.747,0,0,0,.043-1.468A4.8,4.8,0,0,0,18.2-18.33a6.06,6.06,0,0,0-5.14-2.2,7.663,7.663,0,0,0-2.7.475,8.456,8.456,0,0,0-2.311,1.3,8.146,8.146,0,0,0-1.771,1.944A8.216,8.216,0,0,0,5.2-14.357Z" transform="translate(33.255 24.42)"/>
      <path id="Path_2904" data-name="Path 2904" d="M20.433-20.878a11.859,11.859,0,0,1,2.586,3.865,11.88,11.88,0,0,1,.905,4.6,11.86,11.86,0,0,1-.907,4.6A12.35,12.35,0,0,1,20.426-3.9a12.421,12.421,0,0,1-3.887,2.591,11.812,11.812,0,0,1-4.621.907A11.763,11.763,0,0,1,6.087-1.9V8.577H2.2V-15.868a8.356,8.356,0,0,1,.711-3.477,7.942,7.942,0,0,1,2.047-2.743,10.08,10.08,0,0,1,3.168-1.728,11.971,11.971,0,0,1,3.858-.6q.518,0,1.035.043t1.034.13A11.717,11.717,0,0,1,20.433-20.878Zm-8.5,16.585a7.96,7.96,0,0,0,3.163-.63A8.1,8.1,0,0,0,17.676-6.66a8.12,8.12,0,0,0,1.733-2.584,8.01,8.01,0,0,0,.628-3.17,8.01,8.01,0,0,0-.628-3.17,8.12,8.12,0,0,0-1.733-2.584A8.1,8.1,0,0,0,15.1-19.9a7.96,7.96,0,0,0-3.163-.63A6.5,6.5,0,0,0,7.517-19.1a3.932,3.932,0,0,0-1.43,3.214v9.075A8.167,8.167,0,0,0,8.773-4.945,7.935,7.935,0,0,0,11.936-4.294Z" transform="translate(56.793 24.42)" fill="#2b2e3f"/>
      <path id="Path_2905" data-name="Path 2905" d="M2.2-.45V-17.38a6.288,6.288,0,0,1,2.246-5.053A8.02,8.02,0,0,1,7.124-23.9a10.592,10.592,0,0,1,3.369-.518h.086a10.5,10.5,0,0,1,5.356,1.425l-1.944,3.369a6.65,6.65,0,0,0-3.412-.907h-.13a6.693,6.693,0,0,0-1.987.281,4.2,4.2,0,0,0-1.512.8,2.572,2.572,0,0,0-.864,2.073V-.45Z" transform="translate(81.333 24.42)" fill="#2b2e3f"/>
      <path id="Path_2906" data-name="Path 2906" d="M13.064-.45a12.112,12.112,0,0,1-4.6-.885A11.275,11.275,0,0,1,4.6-3.948,11.275,11.275,0,0,1,1.985-7.814a12.112,12.112,0,0,1-.885-4.6,12.112,12.112,0,0,1,.885-4.6A11.275,11.275,0,0,1,4.6-20.878a11.543,11.543,0,0,1,3.865-2.635,11.86,11.86,0,0,1,4.6-.907,11.7,11.7,0,0,1,4.578.907,12.077,12.077,0,0,1,3.887,2.635,11.856,11.856,0,0,1,2.591,3.865,11.86,11.86,0,0,1,.907,4.6,11.86,11.86,0,0,1-.907,4.6,11.856,11.856,0,0,1-2.591,3.865,11.786,11.786,0,0,1-3.887,2.613A11.95,11.95,0,0,1,13.064-.45Zm0-20.083a7.723,7.723,0,0,0-3.153.648,8.382,8.382,0,0,0-2.57,1.749,8.077,8.077,0,0,0-1.728,2.57,7.952,7.952,0,0,0-.626,3.153A7.952,7.952,0,0,0,5.613-9.26a8.077,8.077,0,0,0,1.728,2.57,8.077,8.077,0,0,0,2.57,1.728,7.952,7.952,0,0,0,3.153.626,7.952,7.952,0,0,0,3.153-.626,8.077,8.077,0,0,0,2.57-1.728,8.077,8.077,0,0,0,1.728-2.57,7.952,7.952,0,0,0,.626-3.153,7.952,7.952,0,0,0-.626-3.153,8.077,8.077,0,0,0-1.728-2.57,8.382,8.382,0,0,0-2.57-1.749A7.723,7.723,0,0,0,13.064-20.533Z" transform="translate(94.114 24.42)" fill="#2b2e3f"/>
    </g>
  </g>
</svg>
